<svg width="33" height="32" viewBox="0 0 33 32" fill="none" xmlns="http://www.w3.org/2000/svg">
<rect x="0.428589" width="32" height="32" rx="16" fill="#808080" fill-opacity="0.12"/>
<rect x="2.71429" y="2.28571" width="27.4286" height="27.4286" rx="13.7143" fill="#0064FB"/>
<path d="M13.0823 11.4286C13.5441 11.4286 13.9704 11.464 14.3612 11.5703C14.752 11.6412 15.0717 11.7829 15.3559 11.9601C15.6401 12.1373 15.8532 12.3853 15.9953 12.7042C16.1374 13.0231 16.2085 13.4129 16.2085 13.8382C16.2085 14.3343 16.1019 14.7595 15.8532 15.0784C15.6401 15.3973 15.2848 15.6808 14.8585 15.8934C15.4625 16.0706 15.9243 16.3895 16.2085 16.8147C16.4927 17.24 16.6703 17.7715 16.6703 18.3739C16.6703 18.87 16.5637 19.2952 16.3861 19.6496C16.2085 20.0039 15.9243 20.3228 15.6046 20.5354C15.2848 20.7481 14.8941 20.9252 14.4678 21.0315C14.0415 21.1378 13.6152 21.2087 13.1889 21.2087H8.42859V11.4286H13.0823ZM12.7981 15.3973C13.1889 15.3973 13.5086 15.291 13.7573 15.1138C14.0059 14.9367 14.1125 14.6177 14.1125 14.2279C14.1125 14.0153 14.077 13.8027 14.0059 13.661C13.9349 13.5192 13.8283 13.4129 13.6862 13.3066C13.5441 13.2358 13.402 13.1649 13.2244 13.1295C13.0468 13.094 12.8692 13.094 12.656 13.094H10.5956V15.3973H12.7981ZM12.9047 19.5787C13.1178 19.5787 13.331 19.5432 13.5086 19.5078C13.6862 19.4724 13.8639 19.4015 14.0059 19.2952C14.148 19.1889 14.2546 19.0826 14.3612 18.9054C14.4322 18.7282 14.5033 18.5156 14.5033 18.2676C14.5033 17.7715 14.3612 17.4171 14.077 17.1691C13.7928 16.9565 13.402 16.8502 12.9402 16.8502H10.5956V19.5787H12.9047ZM19.7609 19.5432C20.0451 19.8267 20.4714 19.9685 21.0398 19.9685C21.4306 19.9685 21.7858 19.8622 22.07 19.685C22.3542 19.4724 22.5318 19.2598 22.6029 19.0472H24.3436C24.0594 19.8976 23.6331 20.5 23.0647 20.8898C22.4963 21.2441 21.8214 21.4568 21.0043 21.4568C20.4359 21.4568 19.9386 21.3505 19.4767 21.1733C19.0149 20.9961 18.6597 20.7481 18.3399 20.3937C18.0202 20.0748 17.7716 19.685 17.6295 19.2243C17.4518 18.7637 17.3808 18.2676 17.3808 17.7006C17.3808 17.1691 17.4518 16.673 17.6295 16.2123C17.8071 15.7517 18.0558 15.3619 18.3755 15.0075C18.6952 14.6886 19.086 14.4051 19.5123 14.2279C19.9741 14.0508 20.4359 13.9445 21.0043 13.9445C21.6082 13.9445 22.1411 14.0508 22.6029 14.2988C23.0647 14.5469 23.42 14.8304 23.7042 15.2556C23.9884 15.6454 24.2015 16.106 24.3436 16.6021C24.4147 17.0982 24.4502 17.5943 24.4147 18.1613H19.2636C19.2636 18.7282 19.4767 19.2598 19.7609 19.5432ZM21.999 15.8225C21.7503 15.5745 21.3595 15.4328 20.8977 15.4328C20.578 15.4328 20.3293 15.5036 20.1162 15.6099C19.903 15.7162 19.7609 15.858 19.6188 15.9997C19.4767 16.1415 19.4057 16.3186 19.3702 16.4958C19.3346 16.673 19.2991 16.8147 19.2991 16.9565H22.4963C22.4253 16.4249 22.2477 16.0706 21.999 15.8225ZM18.8728 12.1018H22.8516V13.0586H18.8728V12.1018Z" fill="white"/>
</svg>
