<svg width="33" height="32" viewBox="0 0 33 32" fill="none" xmlns="http://www.w3.org/2000/svg">
<rect x="0.428589" width="32" height="32" rx="16" fill="#808080" fill-opacity="0.12"/>
<rect x="2.71429" y="2.28571" width="27.4286" height="27.4286" rx="13.7143" fill="#071E2E"/>
<path d="M12.3612 16.9184L13.9232 21.2418C13.9232 21.2418 14.1185 21.6464 14.3276 21.6464C14.5367 21.6464 17.647 18.4107 17.647 18.4107L21.1058 11.7302L12.4169 15.8024L12.3612 16.9184Z" fill="#C8DAEA"/>
<path d="M14.4323 18.0272L14.1324 21.214C14.1324 21.214 14.0069 22.1904 14.9832 21.214C15.9594 20.2375 16.8939 19.4846 16.8939 19.4846" fill="#A9C6D8"/>
<path d="M12.3893 17.0727L9.17624 16.0258C9.17624 16.0258 8.79224 15.87 8.91589 15.5167C8.94134 15.4439 8.99269 15.3819 9.14629 15.2754C9.85823 14.7791 22.3237 10.2987 22.3237 10.2987C22.3237 10.2987 22.6756 10.1801 22.8832 10.259C22.9346 10.2749 22.9808 10.3042 23.0171 10.3438C23.0534 10.3834 23.0786 10.4319 23.09 10.4845C23.1125 10.5773 23.1218 10.6727 23.1179 10.7681C23.1169 10.8506 23.1069 10.9271 23.0994 11.047C23.0234 12.2719 20.7515 21.4142 20.7515 21.4142C20.7515 21.4142 20.6155 21.9492 20.1285 21.9675C20.0088 21.9714 19.8896 21.9511 19.7779 21.9079C19.6662 21.8647 19.5644 21.7994 19.4784 21.716C18.5227 20.8939 15.2194 18.674 14.4895 18.1858C14.473 18.1745 14.4592 18.1599 14.4488 18.1429C14.4385 18.1258 14.4319 18.1068 14.4296 18.087C14.4194 18.0356 14.4753 17.9718 14.4753 17.9718C14.4753 17.9718 20.2272 12.8591 20.3803 12.3224C20.3921 12.2808 20.3474 12.2603 20.2873 12.2785C19.9052 12.4191 13.2826 16.6013 12.5517 17.0628C12.4991 17.0787 12.4435 17.0821 12.3893 17.0727Z" fill="white"/>
</svg>
