<svg width="33" height="32" viewBox="0 0 33 32" fill="none" xmlns="http://www.w3.org/2000/svg">
<rect x="0.428589" width="32" height="32" rx="16" fill="#808080" fill-opacity="0.12"/>
<rect x="2.71429" y="2.28571" width="27.4286" height="27.4286" rx="13.7143" fill="#2DA7FF"/>
<g clip-path="url(#clip0_54_473)">
<path d="M22.7479 13.5948C22.7576 13.7348 22.7576 13.8748 22.7576 14.016C22.7576 18.3212 19.4802 23.2864 13.4873 23.2864V23.2838C11.717 23.2864 9.98343 22.7793 8.4931 21.8231C8.75052 21.8541 9.00923 21.8696 9.26859 21.8702C10.7357 21.8715 12.1608 21.3793 13.315 20.4728C11.9208 20.4464 10.6983 19.5373 10.2712 18.2102C10.7596 18.3044 11.2628 18.2851 11.7421 18.1541C10.2221 17.847 9.12859 16.5115 9.12859 14.9606V14.9193C9.58149 15.1715 10.0886 15.3115 10.6073 15.327C9.17568 14.3702 8.73439 12.4657 9.59891 10.9767C11.2531 13.0122 13.6937 14.2496 16.3137 14.3806C16.0512 13.2489 16.4099 12.0631 17.2563 11.2677C18.5686 10.0341 20.6325 10.0973 21.866 11.4089C22.5957 11.2651 23.295 10.9973 23.935 10.618C23.6918 11.3722 23.1828 12.0128 22.5028 12.4199C23.1486 12.3438 23.7796 12.1709 24.3737 11.907C23.9363 12.5625 23.3854 13.1335 22.7479 13.5948Z" fill="white"/>
</g>
<defs>
<clipPath id="clip0_54_473">
<rect width="16" height="13.1613" fill="white" transform="translate(8.42859 10.2857)"/>
</clipPath>
</defs>
</svg>
